<svg width="20" height="23" viewBox="0 0 20 23" fill="none" xmlns="http://www.w3.org/2000/svg">
<g id="PDF" clip-path="url(#clip0_52_200465)">
<path id="Path" fill-rule="evenodd" clip-rule="evenodd" d="M17 1.72628V21.2737C17 22.2235 16.2326 23 15.2798 23H2.72022C1.77378 23 1 22.2299 1 21.2737V5.58956L6.56994 0H15.2734C16.2326 0 17 0.770089 17 1.72628Z" fill="#E9EAEC"/>
<path id="Path_2" fill-rule="evenodd" clip-rule="evenodd" d="M1 5.99312L6 0V4.15596C6 5.17431 5.31114 6 4.46154 6H1V5.99312Z" fill="#BDC2C7"/>
<path id="Path_3" fill-rule="evenodd" clip-rule="evenodd" d="M17 15V21H6.30348L2.69532 20.0142H1V15.9858H2.69532V15.9792L6.30348 15H17Z" fill="#BDC2C7"/>
<g id="Group">
<path id="Path_4" d="M18.5794 19.5832H6.21631V14.0181H18.5794C19.3373 14.0181 19.9552 14.6093 19.9552 15.3347V18.2666C19.9552 18.992 19.3437 19.5832 18.5794 19.5832Z" fill="#E95935"/>
<path id="Path_5" d="M6.21638 19.5832L2.62402 18.6689V14.9263L6.21638 14.0181V19.5832Z" fill="#E94921"/>
<rect id="Rectangle" x="0.0444336" y="14.9326" width="2.57962" height="3.74263" fill="#E95935"/>
<path id="Path_6" d="M0.0444336 14.9324L0.936153 14.4204V14.9324H0.0444336Z" fill="#C43E1C"/>
<path id="Path_7" d="M0.0444336 18.6689L0.936153 19.181V18.6689H0.0444336Z" fill="#C43E1C"/>
</g>
<g id="Group_2">
<path id="Shape" fill-rule="evenodd" clip-rule="evenodd" d="M9.04883 15.0581V18.8369H9.9216V17.6528H10.3122C10.5685 17.6528 10.7761 17.6334 10.9347 17.5816C11.0934 17.5363 11.2338 17.4522 11.3559 17.3293C11.4718 17.2128 11.5634 17.0705 11.6305 16.8958C11.6977 16.721 11.7343 16.5399 11.7343 16.3458C11.7343 16.1387 11.6977 15.951 11.6244 15.7763C11.5512 15.6081 11.4474 15.4593 11.3131 15.3428C11.2521 15.2846 11.185 15.2458 11.1178 15.2069C11.0507 15.1681 10.9714 15.1422 10.8859 15.1163C10.8005 15.0969 10.7028 15.0775 10.593 15.071C10.4831 15.0646 10.3549 15.0581 10.2146 15.0581H9.04883ZM10.2878 16.8052H9.9216V15.9122H10.2512C10.4648 15.9122 10.6235 15.9446 10.715 16.0158C10.8066 16.0869 10.8554 16.1969 10.8554 16.3587C10.8554 16.6563 10.6662 16.8052 10.2878 16.8052Z" fill="white"/>
<path id="Shape_2" fill-rule="evenodd" clip-rule="evenodd" d="M12.1372 15.0581V18.8369H13.5227C13.7729 18.8369 14.0048 18.7916 14.2123 18.701C14.4198 18.6105 14.5968 18.481 14.7433 18.3128C14.8898 18.1446 15.0058 17.944 15.0851 17.711C15.1644 17.4781 15.2072 17.2128 15.2072 16.9281C15.2072 16.4752 15.1034 16.0869 14.8837 15.7634C14.7616 15.5822 14.6151 15.4399 14.4504 15.3299C14.3771 15.2781 14.3039 15.2393 14.2245 15.2005C14.1513 15.1681 14.0658 15.1358 13.9804 15.1163C13.895 15.0969 13.7973 15.0775 13.6935 15.071C13.5898 15.0646 13.4677 15.0581 13.3335 15.0581H12.1372ZM13.4372 17.9893H13.0466H13.0405V15.9058H13.4372C13.7119 15.9058 13.9255 15.9963 14.0781 16.1775C14.2306 16.3587 14.3039 16.6175 14.3039 16.9605C14.3039 17.2969 14.2306 17.5493 14.0842 17.724C13.9377 17.8987 13.7241 17.9893 13.4372 17.9893Z" fill="white"/>
<path id="Path_8" d="M15.6768 18.8369V15.0581H17.6237V15.9058H16.5495V16.5463H17.5871V17.394H16.5495V18.8305H15.6768V18.8369Z" fill="white"/>
</g>
</g>
<defs>
<clipPath id="clip0_52_200465">
<rect width="20" height="23" fill="white"/>
</clipPath>
</defs>
</svg>
